<svg width="1050" height="175" viewBox="0 0 1050 175" fill="none" xmlns="http://www.w3.org/2000/svg">
<g clip-path="url(#clip0_1_208)">
<g clip-path="url(#clip1_1_208)">
<path d="M48.2554 102.425L54.4193 102.553C52.2949 101.818 50.2349 100.924 48.2554 99.8709V102.425ZM57.5415 101.579V102.425L54.4193 102.553C60.2935 104.548 65.6688 104.819 69.6601 103.702C66.4574 103.734 62.2892 103.287 57.5415 101.579ZM123.349 83.1901C125.908 83.1901 128 81.131 128 78.577C128 76.023 125.924 74.6662 123.349 74.6662C120.79 74.6662 118.698 76.039 118.698 78.577C118.698 81.115 120.774 83.1901 123.349 83.1901ZM118.682 102.425H128V84.7864H118.682V102.425ZM106.821 102.425H116.139V71.2502L106.821 75.608V102.425ZM101.831 83.3657C98.9024 80.4606 93.7202 80.6362 93.7202 80.6362C93.7202 80.6362 88.522 80.4606 85.609 83.3657C82.6799 86.2709 82.9052 88.777 82.9052 91.762C82.9052 94.747 82.6799 97.2371 85.609 100.142C88.5381 103.047 93.7202 102.872 93.7202 102.872C93.7202 102.872 98.9185 103.047 101.831 100.142C104.761 97.2371 104.535 94.747 104.535 91.762C104.519 88.761 104.744 86.2549 101.831 83.3657ZM95.4262 94.8427C95.4262 95.4174 95.1365 96.838 93.7042 96.838C92.2718 96.838 91.9821 95.4174 91.9821 94.8427V88.3939C91.9821 87.0052 93.157 86.654 93.7042 86.654C94.2513 86.654 95.4262 86.9892 95.4262 88.3939V94.8427ZM78.3346 83.3657C75.4056 80.4606 70.2234 80.6362 70.2234 80.6362C70.2234 80.6362 65.0412 80.4606 62.1121 83.3657C61.8063 83.669 61.5167 83.9883 61.2592 84.3235C55.1113 79.5986 49.5912 76.9009 44.8274 74.5704V71.2662L41.2063 72.9582C32.4513 69.4305 26.8829 70.0531 25.5471 72.9742C25.5471 72.9742 21.5398 78.2099 35.4931 90.6606V102.425H44.8113V97.8596C43.7653 97.1892 42.7192 96.4709 41.6892 95.6887C39.3073 93.9009 37.2795 92.2409 35.5092 90.6765V85.7282C37.6174 88.0747 40.4178 90.7404 44.1032 93.7573L44.8274 94.3319V89.5751C44.8274 88.4737 45.101 86.67 46.5656 86.67C48.0301 86.67 48.2715 87.7714 48.2715 89.0643V96.838C51.1684 98.7855 54.2745 100.366 57.5576 101.563V86.5742C57.5576 83.5892 55.401 80.6042 51.0235 80.6042C48.4807 80.5883 46.1149 81.9132 44.8274 84.1V75.4324C51.5707 78.7685 58.3301 82.8549 60.9051 84.7385C59.2635 87.069 59.4084 89.2239 59.4084 91.7141C59.4084 94.6991 59.1831 97.1892 62.1121 100.094C65.0412 103 70.2234 102.824 70.2234 102.824C70.2234 102.824 75.4217 103 78.3346 100.094C81.2637 97.1892 81.0223 94.6991 81.0223 91.7141C81.0223 88.761 81.2637 86.2549 78.3346 83.3657ZM35.4931 75.608V85.7122C27.6554 77.0127 29.2326 73.5808 29.8281 73.0859C32.0007 71.2662 35.8632 71.8089 40.1924 73.4211L35.4931 75.608ZM71.9454 94.8427C71.9454 95.4174 71.6557 96.838 70.2234 96.838C68.791 96.838 68.5013 95.4174 68.5013 94.8427V88.3939C68.5013 87.0052 69.6762 86.654 70.2234 86.654C70.7706 86.654 71.9454 86.9892 71.9454 88.3939V94.8427Z" fill="#737373"/>
</g>
</g>
<g clip-path="url(#clip2_1_208)">
<path d="M214.5 58.9953H227.112V93.0099C227.112 98.4047 229.544 101.615 231.521 102.952C229.463 104.761 223.221 106.358 218.52 102.496C215.764 100.214 214.5 96.4163 214.5 92.8795V58.9953ZM293.269 87.2729V83.6873H297.127V71.1702H292.896C291.259 63.624 284.596 58.0174 276.637 58.0174C267.461 58.0174 259.988 65.5146 259.988 74.7558V103.962C262.582 104.337 265.727 103.914 268.369 101.681C271.141 99.3989 272.389 95.6177 272.389 92.0646V90.9726H278.679V78.4555H272.389V74.658C272.389 69.0188 280.851 69.0188 280.851 74.658V87.224C280.851 96.4489 288.308 103.962 297.5 103.962V91.4942C295.149 91.4942 293.269 89.5873 293.269 87.2729ZM245.56 71.1376V89.5547C245.56 92.0646 241.702 92.0646 241.702 89.5547V71.1376H229.252V92.7655C229.252 96.6445 230.549 101.567 236.547 103.18C242.545 104.777 245.982 101.452 245.982 101.452C245.641 103.636 243.631 105.25 240.324 105.576C237.811 105.837 234.618 104.989 233.029 104.305V115.762C237.098 116.985 241.378 117.36 245.609 116.528C253.244 115.045 258.059 108.64 258.059 100.1V71.0561H245.56V71.1376Z" fill="#737373"/>
</g>
<g clip-path="url(#clip3_1_208)">
<path d="M486 50.1458C473.122 58.8283 471.752 65.1296 470.636 67.0573C469.568 69.0335 468.772 76.8251 466.923 80.5994C465.058 84.4223 458.285 87.4352 456.388 88.6987C454.523 89.9622 451.878 94.8704 449.71 99.0983C432.482 98.3856 423.031 105.383 408.4 114.26C413.086 112.689 415.301 111.555 415.301 111.555C430.314 105.724 437.502 100.491 460.102 103.585C460.277 103.585 460.404 103.683 460.548 103.715C461.169 104.071 461.392 104.833 461.042 105.464L452.452 120.983C452.053 121.744 451.208 122.149 450.364 121.971C430.155 118.116 414.202 124.773 399.539 124.984C387.841 125.162 384 119.557 384 119.298C384 119.12 384.096 119.023 384.271 119.023C384.271 119.023 390.375 119.023 400.702 116.544C412.432 93.8175 422.887 85.864 434.267 85.864C434.267 85.864 445.694 85.864 448.706 95.8909C452.34 89.4601 453.217 87.9212 453.217 87.9212C454.061 86.3985 458.795 75.4158 466.987 65.0162C475.194 54.6491 481.394 52.0735 486 50.1458Z" fill="#737373"/>
</g>
<g clip-path="url(#clip4_1_208)">
<g clip-path="url(#clip5_1_208)">
<path d="M591.555 69.7932L584.587 71.2568L584.555 93.9114C584.555 98.0955 587.741 100.8 591.974 100.8C594.324 100.8 596.046 100.37 596.995 99.8614V94.4841C596.078 94.85 591.572 96.1546 591.572 91.9864V81.9318H596.995V75.9182H591.572L591.555 69.7932ZM605.895 78.0023L605.46 75.9182H599.28V100.291H606.41V83.8886C608.1 81.6932 610.948 82.1227 611.866 82.4091V75.9182C610.9 75.5841 607.569 74.9636 605.895 78.0023ZM620.75 66.5L613.572 68.0114V73.7705L620.75 72.2591V66.5ZM572.227 83.0932C572.227 81.9955 573.16 81.5659 574.657 81.55C576.83 81.55 579.598 82.2023 581.77 83.3636V76.7136C579.405 75.7909 577.039 75.425 574.673 75.425C568.879 75.425 565.017 78.4159 565.017 83.4114C565.017 91.2386 575.88 89.9659 575.88 93.3386C575.88 94.6432 574.738 95.0727 573.144 95.0727C570.778 95.0727 567.721 94.1023 565.323 92.8136V99.1773C567.978 100.307 570.666 100.784 573.128 100.784C579.067 100.784 583.155 98.2705 583.155 93.1796C583.155 84.7636 572.227 86.275 572.227 83.0932ZM668.001 88.3909C668.001 81.1523 664.46 75.4409 657.669 75.4409C650.877 75.4409 646.741 81.1523 646.741 88.3432C646.741 96.8545 651.617 100.784 658.57 100.784C661.982 100.784 664.541 100.02 666.488 98.9545V93.6409C664.541 94.6114 662.304 95.2 659.471 95.2C656.687 95.2 654.241 94.2295 653.919 90.9205H667.904C667.936 90.5545 668.001 89.075 668.001 88.3909ZM653.854 85.7182C653.854 82.5364 655.834 81.2 657.62 81.2C659.375 81.2 661.241 82.5364 661.241 85.7182H653.854ZM635.685 75.4409C632.884 75.4409 631.082 76.7455 630.084 77.6523L629.714 75.9023H623.421V108.484L630.567 106.989L630.583 99.0023C631.613 99.75 633.142 100.784 635.636 100.784C640.754 100.784 645.421 97.0932 645.421 88.1205C645.437 79.9114 640.706 75.4409 635.685 75.4409ZM633.979 94.9296C632.305 94.9296 631.307 94.325 630.615 93.5932L630.567 83.0932C631.307 82.2818 632.337 81.6932 633.979 81.6932C636.586 81.6932 638.388 84.5886 638.388 88.2795C638.404 92.0818 636.634 94.9296 633.979 94.9296ZM613.588 100.291H620.766V75.9182H613.588V100.291Z" fill="#737373"/>
</g>
</g>
<g clip-path="url(#clip6_1_208)">
<g clip-path="url(#clip7_1_208)">
<path d="M774.887 78.9886C774.771 82.6267 776.604 84.2378 776.65 85.2609C776.628 85.4692 776.556 85.6693 776.441 85.8445C776.325 86.0197 776.169 86.1649 775.985 86.268L773.912 87.7072C773.644 87.8937 773.327 88.0007 773 88.0156C772.93 88.0124 771.673 88.3095 769.682 83.9021C768.468 85.4054 766.922 86.6133 765.164 87.4332C763.406 88.2531 761.482 88.6633 759.54 88.6324C756.903 88.7753 749.755 87.1482 750.123 79.6038C749.866 73.4552 755.641 69.6356 761.613 69.9585C762.764 69.9617 765.112 70.0179 769.225 70.9656V68.4567C769.661 64.2066 766.844 60.9091 761.967 61.4038C761.578 61.4054 758.824 61.3235 754.541 63.0277C753.348 63.5706 753.196 63.4806 752.799 63.4806C751.599 63.4806 752.093 60.0305 752.323 59.5936C753.167 58.5656 758.132 56.6461 763.005 56.6735C766.263 56.3878 769.504 57.3848 772.026 59.449C773.052 60.5863 773.834 61.918 774.326 63.3634C774.818 64.8089 775.009 66.3383 774.889 67.8592L774.887 78.9886ZM760.888 84.1912C766.141 84.1157 768.365 80.9836 768.872 79.297C769.271 77.6828 769.204 76.6612 769.204 74.896C767.638 74.5234 765.383 74.117 762.796 74.1138C760.342 73.9307 755.859 75.0181 756.034 79.2954C755.833 81.9923 757.836 84.3389 760.888 84.1912ZM788.576 87.8935C787.302 88.0092 786.709 87.1129 786.522 86.2279L778.454 59.7815C778.297 59.335 778.193 58.874 778.143 58.4034C778.113 58.2093 778.163 58.0115 778.28 57.8534C778.397 57.6953 778.573 57.5898 778.769 57.5601C778.807 57.5537 778.423 57.5601 782.373 57.5601C783.795 57.4187 784.258 58.5286 784.406 59.2257L790.192 81.8461L795.564 59.2257C795.65 58.7085 796.04 57.4477 797.638 57.581H800.417C800.769 57.5521 802.217 57.5007 802.471 59.2466L807.885 82.1561L813.858 59.2466C813.936 58.8965 814.299 57.4203 815.912 57.581H819.107C819.244 57.5601 820.103 57.4509 819.957 58.9591C819.887 59.2563 820.509 57.2469 811.412 86.2487C811.226 87.1338 810.631 88.03 809.358 87.9144H806.33C804.558 88.0991 804.304 86.3628 804.276 86.1877L798.904 64.1616L793.594 86.1652C793.568 86.3403 793.314 88.0766 791.54 87.8919H788.576V87.8935ZM832.878 88.7978C831.925 88.7994 827.383 88.7496 823.586 86.8238C823.207 86.665 822.885 86.3984 822.66 86.0578C822.435 85.7172 822.317 85.318 822.321 84.9108V83.1841C822.321 81.8268 823.325 82.0758 823.751 82.238C825.377 82.8901 826.421 83.3849 828.418 83.78C834.355 84.9895 836.966 83.4106 837.606 83.0604C839.736 81.8059 839.905 78.9356 838.457 77.4467C836.759 76.0348 835.949 75.9818 829.85 74.0736C829.098 73.8664 822.771 71.8875 822.756 65.6635C822.657 61.1275 826.814 56.6397 834.018 56.6767C836.071 56.6751 841.539 57.34 843.02 59.1856C843.239 59.5213 843.347 59.9164 843.331 60.3164V61.9402C843.331 62.6534 843.069 63.01 842.542 63.01C841.293 62.8718 839.077 61.2158 834.579 61.2833C833.462 61.2255 828.117 61.4295 828.356 65.294C828.287 68.3394 832.667 69.4814 833.168 69.6131C839.074 71.3752 841.049 71.6675 843.393 74.3643C846.169 77.9382 844.672 82.1224 844.097 83.2692C841.007 89.2909 833.014 88.801 832.878 88.7978ZM839.39 105.641C828.045 113.948 811.577 118.37 797.516 118.37C778.543 118.494 760.21 111.577 746.12 98.978C745.062 98.032 745.996 96.7357 747.282 97.4569C762.912 106.322 780.608 110.98 798.614 110.968C812.061 110.897 825.361 108.192 837.75 103.01C839.659 102.207 841.277 104.262 839.39 105.641ZM844.118 100.294C842.667 98.4431 834.515 99.4294 830.866 99.8614C829.766 99.9851 829.579 99.0391 830.576 98.3403C837.067 93.8156 847.728 95.1118 848.952 96.6329C850.175 98.154 848.62 108.745 842.544 113.805C841.611 114.587 840.718 114.174 841.133 113.146C842.5 109.733 845.57 102.145 844.118 100.294Z" fill="#737373"/>
</g>
</g>
<g clip-path="url(#clip8_1_208)">
<g clip-path="url(#clip9_1_208)">
<path d="M1007.93 79.1614C1005.53 79.1614 1003.42 80.1556 1001.87 81.7111C996.175 77.7503 988.495 75.2006 979.985 74.928L984.408 54.9156L998.49 58.0906C998.49 61.5543 1001.3 64.3766 1004.75 64.3766C1008.26 64.3766 1011.09 61.4741 1011.09 58.0104C1011.09 54.5467 1008.28 51.6443 1004.75 51.6443C1002.29 51.6443 1000.17 53.1356 999.113 55.1721L983.561 51.7084C982.779 51.5 982.013 52.0612 981.805 52.847L976.951 74.912C968.505 75.2648 960.905 77.8144 955.189 81.7752C953.64 80.1556 951.453 79.1614 949.058 79.1614C940.181 79.1614 937.275 91.124 945.402 95.2131C945.114 96.4799 944.987 97.8269 944.987 99.1739C944.987 112.612 960.059 123.5 978.564 123.5C997.149 123.5 1012.22 112.612 1012.22 99.1739C1012.22 97.8269 1012.08 96.4158 1011.73 95.149C1019.69 91.0438 1016.76 79.1614 1007.93 79.1614ZM958.287 96.063C958.287 92.5351 961.097 89.6968 964.625 89.6968C968.074 89.6968 970.884 92.5191 970.884 96.063C970.884 99.5267 968.074 102.349 964.625 102.349C961.113 102.365 958.287 99.5267 958.287 96.063ZM992.502 111.056C986.691 116.893 970.293 116.893 964.481 111.056C963.843 110.495 963.843 109.501 964.481 108.859C965.04 108.298 966.03 108.298 966.589 108.859C971.028 113.43 985.749 113.51 990.379 108.859C990.938 108.298 991.928 108.298 992.487 108.859C993.141 109.501 993.141 110.495 992.502 111.056ZM992.375 102.365C988.926 102.365 986.116 99.5427 986.116 96.079C986.116 92.5512 988.926 89.7129 992.375 89.7129C995.887 89.7129 998.713 92.5351 998.713 96.079C998.697 99.5267 995.887 102.365 992.375 102.365Z" fill="#737373"/>
</g>
</g>
<defs>
<clipPath id="clip0_1_208">
<rect width="153" height="34" fill="white" transform="translate(0 70.5)"/>
</clipPath>
<clipPath id="clip1_1_208">
<rect width="103" height="34" fill="white" transform="translate(25 70.5)"/>
</clipPath>
<clipPath id="clip2_1_208">
<rect width="83" height="59" fill="white" transform="translate(214.5 58)"/>
</clipPath>
<clipPath id="clip3_1_208">
<rect width="102" height="75" fill="white" transform="translate(384 50)"/>
</clipPath>
<clipPath id="clip4_1_208">
<rect width="151" height="42" fill="white" transform="translate(541 66.5)"/>
</clipPath>
<clipPath id="clip5_1_208">
<rect width="103" height="42" fill="white" transform="translate(565 66.5)"/>
</clipPath>
<clipPath id="clip6_1_208">
<rect width="151" height="62" fill="white" transform="translate(722 56.5)"/>
</clipPath>
<clipPath id="clip7_1_208">
<rect width="104" height="62" fill="white" transform="translate(745.5 56.5)"/>
</clipPath>
<clipPath id="clip8_1_208">
<rect width="151" height="72" fill="white" transform="translate(903 51.5)"/>
</clipPath>
<clipPath id="clip9_1_208">
<rect width="76" height="72" fill="white" transform="translate(940.5 51.5)"/>
</clipPath>
</defs>
</svg>
